<?xml version="1.0" standalone="no"?>
<!DOCTYPE svg PUBLIC "-//W3C//DTD SVG 1.1//EN" "http://www.w3.org/Graphics/SVG/1.1/DTD/svg11.dtd" >
<svg xmlns="http://www.w3.org/2000/svg">
<metadata></metadata>
<defs>
<font id="bliss_2medium" horiz-adv-x="770" >
<font-face units-per-em="2048" ascent="1638" descent="-410" />
<missing-glyph horiz-adv-x="450" />
<glyph unicode="&#xfb01;" horiz-adv-x="1157" d="M57 801v168h140v145q0 166 86 251t225 85q101 0 186 -39l-43 -170q-70 25 -116 25q-125 0 -125 -148v-149h249l-53 -168h-196v-801h-213v801h-140zM786 1278q0 56 38 93.5t96 37.5t95.5 -37t37.5 -94q0 -56 -38 -93.5t-95 -37.5q-58 0 -96 37.5t-38 93.5zM813 0v969h213 v-969h-213z" />
<glyph unicode="&#xfb02;" horiz-adv-x="1232" d="M57 801v168h140v145q0 166 86 251t225 85q101 0 186 -39l-43 -170q-70 25 -116 25q-125 0 -125 -148v-149h249l-53 -168h-196v-801h-213v801h-140zM811 205v1245h213v-1186q0 -52 17.5 -72t54.5 -20q25 0 61 12l43 -166q-71 -32 -166 -32q-111 0 -167 56t-56 163z" />
<glyph horiz-adv-x="2048" />
<glyph horiz-adv-x="2048" />
<glyph unicode="&#xd;" horiz-adv-x="2048" />
<glyph unicode=" "  horiz-adv-x="450" />
<glyph unicode="&#x09;" horiz-adv-x="450" />
<glyph unicode="&#xa0;" horiz-adv-x="450" />
<glyph unicode="!" horiz-adv-x="548" d="M152 111q0 54 35.5 90.5t86.5 36.5q52 0 87.5 -36.5t35.5 -90.5t-35.5 -91.5t-87.5 -37.5q-51 0 -86.5 37.5t-35.5 91.5zM168 1251v99h213v-101q0 -392 -7.5 -541.5t-37.5 -322.5h-123q-30 173 -37.5 323.5t-7.5 542.5z" />
<glyph unicode="&#x22;" d="M115 1450h200l-20 -469h-156zM459 1450h203l-21 -469h-158z" />
<glyph unicode="#" horiz-adv-x="1433" d="M88 348v170h270l66 313h-234v168h271l76 351h200l-73 -351h241l76 351h201l-74 -351h235v-168h-272l-67 -313h235v-170h-272l-74 -348h-201l74 348h-244l-73 -348h-201l74 348h-234zM559 518h244l67 313h-243z" />
<glyph unicode="$" horiz-adv-x="1101" d="M135 139l84 160q139 -92 279 -92q43 0 80 8t70 25.5t52 50t19 76.5q0 52 -30.5 95t-79 75t-107 63t-117.5 67t-107.5 78.5t-79 106t-30.5 141.5q0 119 83 213t228 115v199h160v-195q136 -14 235 -63v-183q-153 78 -294 78q-88 0 -139.5 -38t-51.5 -111q0 -50 30.5 -91 t78.5 -72.5t106.5 -62t117.5 -66.5t107 -79t78.5 -107t30.5 -143q0 -137 -92 -229.5t-248 -120.5v-209h-160v207q-162 14 -303 104z" />
<glyph unicode="%" horiz-adv-x="1777" d="M113 1001q0 174 89.5 267.5t229.5 93.5q141 0 230.5 -93t89.5 -268q0 -173 -89.5 -265.5t-230.5 -92.5q-140 0 -229.5 92.5t-89.5 265.5zM285 1001q0 -102 38.5 -163.5t108.5 -61.5q72 0 110 61t38 164q0 104 -38 166t-110 62q-70 0 -108.5 -62t-38.5 -166zM375 0 l848 1350h178l-848 -1350h-178zM1026 340q0 173 90 265.5t230 92.5t229.5 -92.5t89.5 -265.5q0 -174 -89.5 -267t-229.5 -93t-230 93t-90 267zM1198 340q0 -104 38 -165.5t110 -61.5q70 0 108.5 61.5t38.5 165.5q0 102 -38.5 163.5t-108.5 61.5q-72 0 -110 -61t-38 -164z " />
<glyph unicode="&#x26;" horiz-adv-x="1529" d="M113 367q0 254 286 387q-44 50 -65 77t-46.5 68t-35.5 80t-10 86q0 125 102.5 211t273.5 86q174 0 276.5 -83.5t102.5 -217.5q0 -112 -73.5 -197.5t-208.5 -154.5q155 -175 305 -316q127 134 180 301l182 -45q-78 -228 -225 -379q65 -57 116 -83.5t111 -26.5q26 0 54 8 l39 -160q-50 -20 -125 -20q-161 0 -344 153q-206 -161 -461 -161q-194 0 -314 110.5t-120 276.5zM334 381q0 -99 68 -163t176 -64q152 0 284 108q-186 174 -348 361q-94 -45 -137 -103.5t-43 -138.5zM461 1069q0 -49 32 -103t101 -126q89 44 136.5 101t47.5 120 q0 57 -40 100t-120 43q-77 0 -117 -39.5t-40 -95.5z" />
<glyph unicode="'" horiz-adv-x="425" d="M113 1450h202l-20 -469h-158z" />
<glyph unicode="(" horiz-adv-x="690" d="M154 549q0 153 15 281.5t51.5 261.5t105 256.5t168.5 236.5l143 -106q-142 -188 -201 -392t-59 -538q0 -335 59 -538t201 -388l-143 -106q-100 111 -168.5 234t-105 255.5t-51.5 261t-15 281.5z" />
<glyph unicode=")" horiz-adv-x="690" d="M51 1479l144 106q100 -113 168.5 -237t105.5 -256.5t52.5 -261.5t15.5 -281q0 -315 -74.5 -566.5t-265.5 -465.5l-144 106q142 185 201 388t59 538t-59.5 538.5t-202.5 391.5z" />
<glyph unicode="*" horiz-adv-x="991" d="M115 944q56 35 170 77t135 52q-14 6 -130 49t-173 80l78 135q59 -30 154.5 -110t109.5 -90q-1 9 -23 135t-18 194h155q4 -67 -18 -191t-23 -138q25 17 73.5 58.5t98.5 80t95 61.5l78 -137q-56 -36 -174.5 -78t-133.5 -49q12 -6 130 -49.5t175 -79.5l-77 -137 q-59 31 -157 113.5t-108 89.5q1 -8 23 -135t18 -195h-157q-2 64 18.5 183.5t22.5 146.5q-24 -17 -72 -59.5t-97 -81t-93 -60.5z" />
<glyph unicode="+" horiz-adv-x="1107" d="M72 426v178h383v416h198v-416h385v-178h-385v-426h-198v426h-383z" />
<glyph unicode="," horiz-adv-x="473" d="M63 -248q93 160 93 316q0 59 -13 135l201 37q14 -60 14 -131q0 -223 -176 -416z" />
<glyph unicode="-" horiz-adv-x="741" d="M106 418v180h531v-180h-531z" />
<glyph unicode="&#xad;" horiz-adv-x="741" d="M106 418v180h531v-180h-531z" />
<glyph unicode="." horiz-adv-x="473" d="M109 111q0 54 35.5 90.5t86.5 36.5q53 0 89 -36.5t36 -90.5t-36.5 -91.5t-88.5 -37.5q-51 0 -86.5 37.5t-35.5 91.5z" />
<glyph unicode="/" horiz-adv-x="782" d="M29 -72l514 1497h213l-516 -1497h-211z" />
<glyph unicode="0" horiz-adv-x="1157" d="M102 672q0 332 127 511t349 179q223 0 351 -179t128 -511q0 -333 -128 -512.5t-351 -179.5q-222 0 -349 179.5t-127 512.5zM328 672q0 -510 250 -510q251 0 251 510q0 508 -249 508q-252 0 -252 -508z" />
<glyph unicode="1" horiz-adv-x="888" d="M66 1157l432 203h166v-1360h-211v1137l-314 -148z" />
<glyph unicode="2" horiz-adv-x="1077" d="M66 0q9 110 38 205.5t69.5 164t90.5 127.5t103.5 103t106 83t99 74t82.5 70t57 77.5t21 90.5q0 94 -62.5 139.5t-158.5 45.5q-152 0 -342 -93l-59 166q210 109 430 109q204 0 310.5 -96t106.5 -252q0 -79 -30 -147.5t-79 -120.5t-109.5 -100t-124 -96.5t-119 -100.5 t-99 -122.5t-59.5 -150.5h629v-176h-901z" />
<glyph unicode="3" horiz-adv-x="1118" d="M72 53l59 170q140 -61 299 -61q152 0 236 57.5t84 171.5q0 146 -158 187q-60 16 -170 16h-168v174h139q161 0 239.5 57t78.5 158q0 91 -56.5 144t-165.5 53q-152 0 -323 -93l-60 166q198 109 408 109q206 0 314 -103t108 -255q0 -214 -211 -297v-5q119 -25 184.5 -105.5 t65.5 -203.5q0 -88 -32.5 -161.5t-96.5 -130.5t-168 -89t-238 -32q-213 0 -368 73z" />
<glyph unicode="4" horiz-adv-x="1175" d="M86 340v145l659 875h154v-844h199v-176h-199v-340h-211v340h-602zM324 512q16 0 77.5 2t87.5 2h199v236q0 125 12 278z" />
<glyph unicode="5" horiz-adv-x="1069" d="M78 47l59 170q120 -55 262 -55t231 64.5t89 187.5q0 154 -139 207q-71 30 -242 30h-160v699h772l-45 -176h-518v-351h53q154 0 252 -39q124 -45 189 -139.5t65 -218.5q0 -95 -32 -174.5t-96 -141t-169.5 -96t-242.5 -34.5q-191 0 -328 67z" />
<glyph unicode="6" horiz-adv-x="1136" d="M102 618q0 207 70.5 375t208 268.5t319.5 100.5q151 0 283 -59l-57 -170q-106 53 -215 53q-152 0 -257.5 -110t-129.5 -320q153 100 325 100q175 0 290.5 -111.5t115.5 -306.5q0 -210 -127 -334t-328 -124q-83 0 -156.5 23.5t-136.5 74.5t-108.5 125t-71 180t-25.5 235z M328 580q3 -197 80 -310.5t194 -113.5q109 0 168 66.5t59 189.5q0 126 -64 197t-169 71q-67 0 -141.5 -29t-126.5 -71z" />
<glyph unicode="7" horiz-adv-x="999" d="M41 1350h920v-80q-431 -517 -574 -1270h-223q71 359 208 657.5t302 516.5h-584z" />
<glyph unicode="8" horiz-adv-x="1159" d="M102 350q0 123 67.5 212.5t176.5 131.5v4q-93 48 -149 119t-56 182q0 158 121.5 260.5t323.5 102.5q101 0 183.5 -29t134.5 -78t80 -111t28 -130q0 -206 -211 -309v-5q256 -97 256 -329q0 -173 -129 -282t-357 -109q-222 0 -345.5 100.5t-123.5 269.5zM328 375 q0 -110 72.5 -167.5t181.5 -57.5q106 0 177.5 53.5t71.5 150.5q0 34 -10.5 64t-24.5 51t-42 41.5t-48.5 32.5t-60 27t-59.5 21.5t-64 20.5q-81 -30 -137.5 -90.5t-56.5 -146.5zM367 1012q0 -51 20.5 -91t59.5 -66.5t79.5 -43.5t96.5 -33q161 77 161 219q0 83 -57 139 t-154 56q-91 0 -148.5 -50.5t-57.5 -129.5z" />
<glyph unicode="9" horiz-adv-x="1124" d="M82 905q0 203 127 330t326 127q224 0 355.5 -160.5t131.5 -476.5q0 -354 -152.5 -549.5t-443.5 -195.5q-166 0 -307 63l53 172q125 -59 252 -59q166 0 261 110t114 326h-4q-136 -107 -303 -107q-80 0 -151.5 24.5t-130.5 73.5t-93.5 132t-34.5 190zM303 922 q0 -122 61.5 -190t174.5 -68q76 0 147 35.5t115 88.5q-2 179 -76 288.5t-197 109.5q-102 0 -163.5 -73t-61.5 -191z" />
<glyph unicode=":" horiz-adv-x="473" d="M109 111q0 54 35.5 90.5t86.5 36.5q53 0 89 -36.5t36 -90.5t-36.5 -91.5t-88.5 -37.5q-51 0 -86.5 37.5t-35.5 91.5zM109 791q0 54 35.5 90.5t86.5 36.5q53 0 89 -36.5t36 -90.5t-36.5 -91.5t-88.5 -37.5q-51 0 -86.5 37.5t-35.5 91.5z" />
<glyph unicode=";" horiz-adv-x="473" d="M63 -248q93 160 93 316q0 59 -13 135l201 37q14 -60 14 -131q0 -223 -176 -416zM109 791q0 54 35.5 90.5t86.5 36.5q53 0 89 -36.5t36 -90.5t-36.5 -91.5t-88.5 -37.5q-51 0 -86.5 37.5t-35.5 91.5z" />
<glyph unicode="&#x3c;" horiz-adv-x="1144" d="M111 446v172l868 371v-182l-678 -272v-5l678 -272v-182z" />
<glyph unicode="=" horiz-adv-x="1107" d="M72 229v179h966v-179h-966zM72 621v178h966v-178h-966z" />
<glyph unicode="&#x3e;" horiz-adv-x="1144" d="M166 76v182l680 272v5l-680 272v182l868 -371v-172z" />
<glyph unicode="?" horiz-adv-x="968" d="M96 1202q178 160 396 160q169 0 262.5 -82.5t93.5 -212.5q0 -58 -22.5 -109.5t-58.5 -89.5t-79.5 -72t-87 -63.5t-79.5 -57.5t-58.5 -61t-22.5 -67q0 -49 35 -92l-178 -72q-70 79 -70 174q0 50 21 94.5t55 78t75 64t82.5 59.5t75.5 57.5t55 63.5t21 73q0 63 -41.5 98 t-111.5 35q-134 0 -266 -117zM272 111q0 54 36 90.5t89 36.5q51 0 87 -36.5t36 -90.5t-36 -91.5t-87 -37.5q-52 0 -88.5 37.5t-36.5 91.5z" />
<glyph unicode="@" horiz-adv-x="1585" d="M72 391q0 175 59.5 322.5t162 246t238.5 153t289 54.5q200 0 356.5 -78.5t246 -227.5t89.5 -345q0 -221 -95.5 -339t-250.5 -118q-83 0 -137 44t-67 126h-5q-31 -66 -107.5 -117t-174.5 -51q-50 0 -96.5 17.5t-87 54t-65 101.5t-24.5 151q0 201 124.5 329t312.5 128 q166 0 303 -84l-43 -324q-10 -68 -10 -108q0 -65 21.5 -99t74.5 -34q82 0 130 84t48 229q0 108 -33.5 202t-98.5 168t-172 117t-243 43q-123 0 -231.5 -44t-189.5 -124t-128 -201t-47 -266q0 -134 39 -240.5t107 -175t159 -105t197 -36.5q154 0 266 50l39 -125 q-142 -56 -321 -56q-183 0 -327 82.5t-226 237.5t-82 358zM582 391q0 -96 35 -143t96 -47q81 0 145 75.5t84 239.5l21 154q-58 37 -127 37q-107 0 -180.5 -87.5t-73.5 -228.5z" />
<glyph unicode="A" horiz-adv-x="1257" d="M23 0l518 1356h159l535 -1356h-229l-132 346h-501l-129 -346h-221zM436 522h371l-109 307q-28 79 -71 218h-4q-20 -67 -74 -218z" />
<glyph unicode="B" horiz-adv-x="1138" d="M168 0v1350h369q105 0 186.5 -28t131 -76.5t74.5 -108.5t25 -129q0 -95 -44.5 -171t-125.5 -112v-4q118 -28 188 -117t70 -211q0 -169 -123 -281t-346 -112h-405zM383 178h172q268 0 268 213q0 96 -66 151.5t-179 55.5h-195v-420zM383 776h127q112 0 171.5 53t59.5 146 q0 89 -57.5 142.5t-173.5 53.5h-127v-395z" />
<glyph unicode="C" horiz-adv-x="1259" d="M106 659q0 145 51 274t141 223.5t222 150t287 55.5q203 0 346 -68v-200q-162 86 -342 86q-148 0 -257.5 -69.5t-163.5 -184.5t-54 -258q0 -227 126 -366.5t339 -139.5q167 0 327 90l60 -170q-184 -102 -412 -102q-209 0 -362.5 88t-230.5 240t-77 351z" />
<glyph unicode="D" horiz-adv-x="1392" d="M168 0v1350h387q176 0 315.5 -48.5t230 -137t138 -210.5t47.5 -270q0 -150 -50.5 -276t-144.5 -216.5t-235.5 -141t-316.5 -50.5h-371zM383 176h158q137 0 239.5 40.5t161.5 112t87 160t28 193.5q0 226 -132.5 359t-387.5 133h-154v-998z" />
<glyph unicode="E" horiz-adv-x="1005" d="M168 0v1350h715l-60 -176h-440v-396h436v-176h-436v-426h506v-176h-721z" />
<glyph unicode="F" horiz-adv-x="960" d="M168 0v1350h717l-60 -176h-442v-396h434v-176h-434v-602h-215z" />
<glyph unicode="G" horiz-adv-x="1427" d="M106 651q0 153 52.5 284.5t146.5 225.5t230.5 147.5t298.5 53.5q203 0 385 -70v-200q-176 88 -369 88q-245 0 -379.5 -140t-134.5 -372t129 -369t352 -137q150 0 242 45v442h215v-563q-90 -46 -215.5 -76t-257.5 -30q-158 0 -289.5 50t-220 139.5t-137 213t-48.5 268.5z " />
<glyph unicode="H" horiz-adv-x="1449" d="M168 0v1350h215v-570h684v570h215v-1350h-215v598h-684v-598h-215z" />
<glyph unicode="I" horiz-adv-x="550" d="M168 0v1350h215v-1350h-215z" />
<glyph unicode="J" horiz-adv-x="645" d="M-61 -348l43 174q56 -21 116 -21q51 0 85 15t51 45t23.5 64.5t6.5 82.5v1338h215v-1370q0 -164 -90.5 -260.5t-275.5 -96.5q-95 0 -174 29z" />
<glyph unicode="K" horiz-adv-x="1185" d="M168 0v1350h215v-590h4l479 590h250l-547 -660l580 -690h-262l-500 600h-4v-600h-215z" />
<glyph unicode="L" horiz-adv-x="909" d="M168 0v1350h215v-1174h485v-176h-700z" />
<glyph unicode="M" horiz-adv-x="1660" d="M168 0v1350h197l362 -529q112 -174 117 -182h4q35 63 113 190l333 521h199v-1350h-215v797q0 135 2 194h-2q-21 -41 -94 -155l-289 -453h-102l-318 463q-65 92 -92 143h-4q4 -57 4 -188v-801h-215z" />
<glyph unicode="N" horiz-adv-x="1519" d="M168 0v1350h211l592 -766q99 -128 166 -230h4q-4 144 -4 232v764h215v-1350h-191l-614 797q-30 38 -60 78t-60.5 82.5t-45.5 62.5h-4q6 -88 6 -217v-803h-215z" />
<glyph unicode="O" horiz-adv-x="1560" d="M106 670q0 202 86 360t239.5 245t348.5 87t348.5 -88t238.5 -245.5t85 -358.5q0 -154 -51 -283.5t-140.5 -218.5t-213.5 -138.5t-267 -49.5q-194 0 -347 85t-240 242.5t-87 362.5zM336 670q0 -234 121.5 -371t322.5 -137t323 137t122 371q0 231 -120 370.5t-325 139.5 q-201 0 -322.5 -137.5t-121.5 -372.5z" />
<glyph unicode="P" horiz-adv-x="1087" d="M168 0v1350h301q187 0 301 -60q101 -53 156 -149t55 -228q0 -128 -60 -231.5t-188 -157.5q-114 -49 -282 -49h-68v-475h-215zM383 651h82q108 0 170 35q121 58 121 227q0 155 -113 222q-67 39 -180 39h-80v-523z" />
<glyph unicode="Q" horiz-adv-x="1560" d="M106 670q0 202 86 360t239.5 245t348.5 87t348.5 -88t238.5 -245.5t85 -358.5q0 -286 -163 -470.5t-423 -209.5q116 -140 293 -140q79 0 144 25l49 -168q-91 -39 -219 -39q-92 0 -174 26t-148.5 75t-119 105t-105.5 130q-217 56 -348.5 234t-131.5 432zM336 670 q0 -234 121.5 -371t322.5 -137t323 137t122 371q0 231 -120 370.5t-325 139.5q-201 0 -322.5 -137.5t-121.5 -372.5z" />
<glyph unicode="R" horiz-adv-x="1173" d="M168 0v1350h338q182 0 293 -62q186 -95 186 -317q0 -133 -70.5 -223.5t-195.5 -129.5v-4q55 -31 166 -217l231 -397h-248l-206 358q-96 171 -152 183h-127v-541h-215zM383 719h115q94 0 161 37q103 62 103 192q0 123 -88 178q-61 48 -174 48h-117v-455z" />
<glyph unicode="S" horiz-adv-x="1062" d="M102 92l86 164q142 -94 299 -94q49 0 91 9.5t76.5 30t54.5 56t20 82.5q0 57 -32.5 104t-84.5 80t-114.5 65t-125 68.5t-114.5 80t-84.5 110t-32.5 149.5q0 155 115 260t311 105q189 0 318 -68v-194q-157 80 -312 80q-86 0 -144 -39t-58 -123q0 -54 32.5 -97.5t84 -76 t114 -64t124.5 -69t113.5 -83t84 -115t32.5 -155.5q0 -174 -129 -276t-335 -102q-115 0 -216.5 30t-173.5 82z" />
<glyph unicode="T" horiz-adv-x="1071" d="M33 1174v176h1032l-57 -176h-369v-1174h-215v1174h-391z" />
<glyph unicode="U" horiz-adv-x="1394" d="M158 496v854h215v-838q0 -112 33 -182q72 -168 292 -168q219 0 291 168q35 69 35 186v834h215v-854q0 -144 -47 -250q-58 -131 -184 -198.5t-310 -67.5q-381 0 -495 270q-45 99 -45 246z" />
<glyph unicode="V" horiz-adv-x="1300" d="M20 1350h234l295 -764q28 -72 100 -281h4q53 158 103 285l293 760h231l-545 -1358h-170z" />
<glyph unicode="W" horiz-adv-x="1904" d="M20 1350h242l252 -789q43 -131 74 -252h6q35 127 78 250l188 557l-82 234h221l265 -781q65 -191 82 -258h4q47 184 69 254l242 785h221l-450 -1358h-181l-207 592q-64 187 -79 247h-7q-32 -114 -79 -245l-211 -594h-176z" />
<glyph unicode="X" horiz-adv-x="1265" d="M31 0l477 678l-442 672h243l336 -508l352 508h238l-467 -666l453 -684h-244l-344 520l-367 -520h-235z" />
<glyph unicode="Y" horiz-adv-x="1165" d="M20 1350h236l330 -619h4l321 619h234l-453 -818v-532h-217v537z" />
<glyph unicode="Z" horiz-adv-x="1150" d="M70 0l675 1174h-600l-55 176h991l-667 -1174h684v-176h-1028z" />
<glyph unicode="[" horiz-adv-x="604" d="M152 -479v2062h403v-164h-203v-1734h203v-164h-403z" />
<glyph unicode="\" horiz-adv-x="794" d="M33 1425h213l514 -1497h-213z" />
<glyph unicode="]" horiz-adv-x="604" d="M51 -315h203v1734h-203v164h404v-2062h-404v164z" />
<glyph unicode="^" horiz-adv-x="1110" d="M147 588l318 762h180l318 -762h-183l-223 571h-4l-223 -571h-183z" />
<glyph unicode="_" horiz-adv-x="909" d="M0 -135h909v-121h-909v121z" />
<glyph unicode="`" d="M141 1389h238l119 -302h-166z" />
<glyph unicode="a" horiz-adv-x="987" d="M72 287q0 181 161 262q86 44 248 51l174 6v41q0 92 -52 136t-142 44q-134 0 -258 -71l-74 141q167 96 365 96q374 0 374 -346v-373q0 -205 19 -274h-182l-35 98q-125 -118 -283 -118q-138 0 -226.5 84.5t-88.5 222.5zM287 299q0 -69 42.5 -109t114.5 -40q108 0 211 92 v219l-145 -6q-100 -3 -156 -33q-67 -37 -67 -123z" />
<glyph unicode="b" horiz-adv-x="1071" d="M131 45v1405h213v-492q100 35 197 35q197 0 325.5 -127t128.5 -352q0 -165 -74 -287.5t-200.5 -184.5t-288.5 -62q-184 0 -301 65zM344 178q59 -20 121 -20q141 0 226 94.5t85 249.5q0 141 -71.5 227t-196.5 86q-20 0 -39.5 -2t-33 -4.5t-30 -7.5t-23.5 -8t-21 -8.5 t-17 -6.5v-600z" />
<glyph unicode="c" horiz-adv-x="901" d="M74 477q0 222 142 369t359 147q151 0 256 -63v-182q-107 71 -235 71q-139 0 -221 -94t-82 -242q0 -156 78.5 -242.5t212.5 -86.5q110 0 229 65l61 -147q-59 -41 -143.5 -66.5t-175.5 -25.5q-150 0 -260.5 66.5t-165.5 178t-55 252.5z" />
<glyph unicode="d" horiz-adv-x="1081" d="M74 475q0 228 148 373t374 145q81 0 141 -14v471h213v-1401q-63 -33 -155 -51t-185 -18q-154 0 -273.5 55t-191 169t-71.5 271zM293 479q0 -149 86.5 -235t230.5 -86q77 0 127 20v621q-66 16 -129 16q-137 0 -226 -90t-89 -246z" />
<glyph unicode="e" horiz-adv-x="989" d="M74 487q0 223 115 364.5t309 141.5q196 0 305.5 -136.5t109.5 -373.5v-51h-622q3 -126 81 -204t208 -78q126 0 243 65l64 -145q-139 -90 -330 -90q-123 0 -217.5 41t-151.5 112.5t-85.5 161t-28.5 192.5zM289 584h407q-3 102 -53.5 172.5t-146.5 70.5q-93 0 -149 -70.5 t-58 -172.5z" />
<glyph unicode="f" horiz-adv-x="679" d="M57 801v168h140v145q0 166 86 251t225 85q101 0 186 -39l-43 -170q-70 25 -116 25q-125 0 -125 -148v-149h249l-53 -168h-196v-801h-213v801h-140z" />
<glyph unicode="g" horiz-adv-x="1011" d="M33 -203q0 77 46.5 140t129.5 100q-30 17 -48 49.5t-18 69.5q0 102 113 186q-75 44 -116.5 122t-41.5 175q0 146 102.5 250t278.5 104q107 0 191 -41q11 -6 22 2q84 84 223 84q26 0 62 -6l-43 -155q-46 8 -68 8q-44 0 -78 -21q93 -96 93 -235q0 -160 -109 -258.5 t-283 -98.5q-68 0 -120 19q-35 -45 -35 -84q0 -32 27.5 -53t72 -31t102 -19.5t117 -17.5t117 -26.5t102 -44.5t72 -74t27.5 -113q0 -138 -131.5 -225.5t-364.5 -87.5q-205 0 -323.5 76.5t-118.5 205.5zM225 -166q0 -76 75 -121t200 -45q122 0 193 38.5t71 98.5q0 43 -31 71 t-83.5 41.5t-107.5 21.5t-119 18t-101 23q-97 -66 -97 -146zM303 635q0 -86 49.5 -141.5t136.5 -55.5q81 0 134 51.5t53 143.5q0 82 -52.5 138t-138.5 56q-81 0 -131.5 -51t-50.5 -141z" />
<glyph unicode="h" horiz-adv-x="1089" d="M131 0v1450h213v-594q158 137 324 137q61 0 113 -17.5t96 -56t69 -108.5t25 -166v-645h-213v578q0 51 -7 90t-23.5 71.5t-48.5 50t-79 17.5q-118 0 -256 -117v-690h-213z" />
<glyph unicode="i" horiz-adv-x="479" d="M106 1278q0 56 38 93.5t96 37.5t95.5 -37t37.5 -94q0 -56 -38 -93.5t-95 -37.5q-58 0 -96 37.5t-38 93.5zM133 0v969h213v-969h-213z" />
<glyph unicode="j" horiz-adv-x="505" d="M-117 -453l41 177q54 -23 103 -23q70 0 101.5 42.5t31.5 137.5v1088h213v-1123q0 -160 -85.5 -245.5t-230.5 -85.5q-106 0 -174 32zM133 1278q0 56 37.5 93.5t95.5 37.5q59 0 97 -37t38 -94q0 -56 -38.5 -93.5t-96.5 -37.5t-95.5 37.5t-37.5 93.5z" />
<glyph unicode="k" horiz-adv-x="972" d="M131 0v1450h213v-825h4l334 344h246l-406 -418l443 -551h-250l-367 465h-4v-465h-213z" />
<glyph unicode="l" horiz-adv-x="552" d="M131 205v1245h213v-1186q0 -52 17.5 -72t54.5 -20q25 0 61 12l43 -166q-71 -32 -166 -32q-111 0 -167 56t-56 163z" />
<glyph unicode="m" horiz-adv-x="1685" d="M121 0v969h178l23 -115q170 139 329 139q87 0 153 -39.5t101 -115.5q181 155 352 155q65 0 119 -19.5t98 -59.5t68.5 -109t24.5 -160v-645h-213v586q0 50 -6 87t-22 69t-47.5 48.5t-78.5 16.5q-112 0 -252 -113q2 -12 2 -45v-649h-213v584q0 51 -6 87.5t-21.5 69 t-46.5 49.5t-77 17q-116 0 -252 -113v-694h-213z" />
<glyph unicode="n" horiz-adv-x="1079" d="M121 0v969h180l25 -115q165 139 331 139q61 0 113 -17.5t96 -56t69.5 -108.5t25.5 -166v-645h-213v578q0 51 -7 90t-23.5 71.5t-48.5 50t-79 17.5q-118 0 -256 -117v-690h-213z" />
<glyph unicode="o" horiz-adv-x="1093" d="M74 487q0 220 131 363t342 143q210 0 340.5 -143.5t130.5 -362.5q0 -144 -58 -259t-166 -181.5t-247 -66.5q-210 0 -341.5 144t-131.5 363zM293 487q0 -149 67.5 -241t186.5 -92t185.5 91.5t66.5 241.5q0 149 -66.5 240.5t-185.5 91.5t-186.5 -92t-67.5 -240z" />
<glyph unicode="p" horiz-adv-x="1062" d="M121 -485v1417q171 61 350 61q248 0 382 -134.5t134 -371.5q0 -227 -138 -367t-360 -140q-79 0 -155 26v-491h-213zM334 188q68 -30 141 -30q142 0 217.5 88.5t75.5 242.5q0 162 -81.5 244t-223.5 82q-67 0 -129 -18v-609z" />
<glyph unicode="q" horiz-adv-x="1073" d="M74 461q0 165 73.5 287.5t196.5 183.5t277 61q92 0 183 -16.5t150 -42.5v-1419h-213v528q-101 -63 -237 -63q-84 0 -160 30.5t-137 88.5t-97 151.5t-36 210.5zM293 469q0 -139 71 -225t189 -86q99 0 188 63v574q-65 20 -133 20q-149 0 -232 -94.5t-83 -251.5z" />
<glyph unicode="r" horiz-adv-x="714" d="M121 0v969h178l25 -113q134 137 268 137q74 0 127 -35l-76 -182q-50 27 -102 27q-49 0 -96.5 -25t-110.5 -84v-694h-213z" />
<glyph unicode="s" horiz-adv-x="831" d="M47 70l66 157q122 -77 258 -77q82 0 132 29.5t50 90.5q0 36 -25 63.5t-65 46.5t-88.5 37t-97.5 41.5t-89 54t-65 81t-25 115.5q0 126 95.5 205t259.5 79q148 0 268 -47v-182q-136 59 -260 59q-154 0 -154 -102q0 -31 19.5 -56t52 -41t73.5 -33.5t83.5 -33t83.5 -41 t73.5 -55.5t52 -78.5t19.5 -108.5t-20 -109.5t-55.5 -83.5t-84.5 -57t-104.5 -33.5t-118.5 -10.5q-186 0 -334 90z" />
<glyph unicode="t" horiz-adv-x="763" d="M37 801v168h170v223l213 65v-288h291l-54 -168h-237v-525q0 -65 24 -93.5t72 -28.5q81 0 152 49l67 -148q-50 -35 -123.5 -55t-146.5 -20q-122 0 -190 65.5t-68 183.5v572h-170z" />
<glyph unicode="u" horiz-adv-x="1075" d="M121 360v609h213v-580q0 -86 18 -131q37 -94 150 -94q66 0 125.5 29t97.5 73v703h213v-701q0 -202 18 -268h-184l-35 104q-138 -124 -307 -124q-53 0 -102.5 14.5t-100.5 58.5t-77 113q-29 77 -29 194z" />
<glyph unicode="v" horiz-adv-x="968" d="M14 969h217l254 -699h4l248 699h217l-387 -975h-164z" />
<glyph unicode="w" horiz-adv-x="1492" d="M16 969h220l213 -695h4l211 695h174l219 -697h4l209 697h211l-344 -975h-166l-219 696h-4l-220 -696h-172z" />
<glyph unicode="x" horiz-adv-x="978" d="M16 0l359 487l-346 482h229l236 -336l239 336h225l-350 -482l350 -487h-225l-244 342l-245 -342h-228z" />
<glyph unicode="y" horiz-adv-x="1026" d="M-27 -444l54 168q75 -35 141 -35q90 0 159 72t124 241l-435 967h226l305 -721h4l244 721h217l-369 -1014q-41 -113 -87 -194.5t-89 -128.5t-94.5 -74t-95.5 -35t-101 -8q-113 0 -203 41z" />
<glyph unicode="z" horiz-adv-x="827" d="M35 0l463 801h-389l-46 168h748l-459 -801h453v-168h-770z" />
<glyph unicode="{" horiz-adv-x="708" d="M106 485v148q67 3 101.5 37t34.5 110v445q0 75 16.5 133t55 107t108.5 78t170 36l39 -188q-96 -12 -139 -59.5t-43 -141.5v-379q0 -123 -43.5 -182t-108.5 -68v-4q65 -9 108.5 -68t43.5 -182v-379q0 -94 42.5 -141t139.5 -59l-39 -189q-100 7 -170 36.5t-108.5 78 t-55 107t-16.5 133.5v444q0 76 -34.5 110t-101.5 37z" />
<glyph unicode="|" horiz-adv-x="550" d="M172 -483v2080h207v-2080h-207z" />
<glyph unicode="}" horiz-adv-x="708" d="M78 -272q98 12 141 59t43 141v379q0 123 43.5 182t108.5 68v4q-65 9 -108.5 68t-43.5 182v379q0 94 -43 141.5t-141 59.5l39 188q100 -7 170 -36t108.5 -78t55 -107t16.5 -133v-445q0 -76 35 -110t100 -37v-148q-65 -3 -100 -37t-35 -110v-444q0 -75 -16.5 -133.5 t-55 -107t-108.5 -78t-170 -36.5z" />
<glyph unicode="~" horiz-adv-x="1107" d="M51 549q141 141 295 141q52 0 113 -19t107.5 -41.5t102.5 -41.5t99 -19q52 0 91 20t93 68l105 -135q-141 -141 -295 -141q-64 0 -143 30.5t-153 60.5t-126 30q-51 0 -89 -19.5t-93 -68.5z" />
<glyph unicode="&#xa1;" horiz-adv-x="548" d="M152 864q0 54 35.5 91.5t86.5 37.5q52 0 87.5 -37.5t35.5 -91.5t-35.5 -90.5t-87.5 -36.5q-51 0 -86.5 36.5t-35.5 90.5zM168 -272q0 392 7.5 541.5t37.5 322.5h123q30 -173 37.5 -323.5t7.5 -542.5v-99h-213v101z" />
<glyph unicode="&#xa2;" horiz-adv-x="1101" d="M156 670q0 167 97 298.5t255 166.5v215h158v-199q129 -3 217 -57v-170q-95 63 -234 63q-123 0 -203.5 -84.5t-80.5 -222.5q0 -140 76 -222.5t200 -82.5q118 0 227 59l56 -153q-113 -66 -262 -72v-209h-160v217q-163 33 -254.5 158.5t-91.5 294.5z" />
<glyph unicode="&#xa3;" horiz-adv-x="1101" d="M129 0v141q186 65 186 459h-151v176h151v142q0 106 29 188t73 129t103.5 77t112 40t106.5 10q128 0 258 -49l-47 -172q-83 39 -182 39q-107 0 -174.5 -69t-67.5 -216v-119h387l-57 -176h-330q0 -318 -127 -438v-4q122 18 234 18h358v-176h-862z" />
<glyph unicode="&#xa4;" horiz-adv-x="1101" d="M27 1061l131 129l135 -137q116 80 258 80t258 -80l131 135l129 -129l-135 -133q80 -121 80 -256q0 -139 -82 -258l137 -133l-131 -129l-133 135q-119 -78 -254 -78q-138 0 -256 78l-135 -138l-131 129l139 138q-80 113 -80 256t78 256zM252 670q0 -128 87 -219t212 -91 q124 0 211.5 91t87.5 219q0 129 -87 219t-212 90q-126 0 -212.5 -90t-86.5 -219z" />
<glyph unicode="&#xa5;" horiz-adv-x="1101" d="M57 1350h230l262 -617h4l260 617h231l-323 -674h256v-141h-320v-158h320v-141h-320v-236h-213v236h-319v141h319v158h-319v141h254z" />
<glyph unicode="&#xa6;" horiz-adv-x="550" d="M172 254h207v-737h-207v737zM172 858v739h207v-739h-207z" />
<glyph unicode="&#xa7;" horiz-adv-x="1120" d="M123 -227l86 155q140 -90 293 -90q102 0 168.5 38.5t66.5 127.5q0 53 -33 95t-85.5 71.5t-116 57t-127 59.5t-116 72t-85.5 102t-33 141q0 92 44.5 169t119.5 126q-108 97 -108 244q0 152 107.5 247t283.5 95q197 0 334 -72l-4 -184q-154 80 -312 80q-85 0 -141.5 -39.5 t-56.5 -112.5q0 -43 20.5 -78.5t56 -61t81 -48.5t95.5 -44.5t100 -45.5t95.5 -55.5t81 -69.5t56 -92.5t20.5 -120.5q0 -93 -45.5 -168.5t-122.5 -122.5q104 -93 104 -230q0 -119 -61.5 -200.5t-159.5 -117.5t-225 -36q-119 0 -218.5 32t-162.5 77zM328 655q0 -42 18.5 -78.5 t46.5 -62t72.5 -52.5t83.5 -45t93 -44t89 -45q92 68 92 172q0 48 -23 87.5t-70 72t-90 55t-113 55t-109 53.5q-90 -62 -90 -168z" />
<glyph unicode="&#xa8;" d="M80 1239q0 47 34 81t81 34q46 0 79 -34t33 -81t-33 -81t-79 -34q-47 0 -81 34t-34 81zM463 1239q0 48 32.5 81.5t79.5 33.5q46 0 79.5 -34t33.5 -81t-33.5 -81t-79.5 -34q-47 0 -79.5 33.5t-32.5 81.5z" />
<glyph unicode="&#xa9;" horiz-adv-x="1583" d="M113 670q0 194 86 351.5t241.5 248t350.5 90.5q146 0 273 -53t216 -145t139.5 -219.5t50.5 -272.5t-50.5 -272.5t-139.5 -219.5t-216 -145t-273 -53q-195 0 -350.5 90.5t-241.5 248t-86 351.5zM242 670q0 -251 156 -414.5t393 -163.5q238 0 393 163t155 415 q0 251 -155 413t-393 162q-237 0 -393 -162t-156 -413zM430 662q0 176 106.5 296.5t282.5 120.5q117 0 201 -45v-127q-90 51 -197 51q-116 0 -187 -80t-71 -210q0 -135 68 -214t182 -79q98 0 184 53l45 -104q-116 -66 -239 -66q-171 0 -273 113.5t-102 290.5z" />
<glyph unicode="&#xaa;" horiz-adv-x="743" d="M63 760q0 104 79.5 161t224.5 62l104 4v21q0 53 -35 79.5t-92 26.5q-92 0 -184 -47l-62 111q114 73 267 73q272 0 272 -254v-249q0 -132 18 -195h-143l-23 63q-88 -77 -196 -77q-99 0 -164.5 60.5t-65.5 160.5zM236 768q0 -41 27 -66.5t73 -25.5q73 0 135 57v133l-94 -4 q-141 -3 -141 -94z" />
<glyph unicode="&#xab;" horiz-adv-x="1202" d="M84 494l344 471l170 -95l-276 -376l276 -375l-170 -94zM563 494l346 471l170 -95l-278 -376l278 -375l-170 -94z" />
<glyph unicode="&#xac;" horiz-adv-x="1107" d="M72 496v178h966v-604h-200v426h-766z" />
<glyph unicode="&#xae;" horiz-adv-x="1179" d="M98 866q0 212 138 354t350 142q210 0 350.5 -142.5t140.5 -353.5q0 -140 -63.5 -253.5t-176.5 -178.5t-251 -65q-140 0 -252 65t-174 178.5t-62 253.5zM199 866q0 -173 109 -290t278 -117q170 0 279.5 116.5t109.5 290.5q0 172 -109.5 289t-279.5 117q-168 0 -277.5 -117 t-109.5 -289zM422 606v535h149q54 0 91 -13q49 -14 74.5 -50.5t25.5 -82.5q0 -57 -35.5 -93.5t-91.5 -49.5v-2q25 -16 60 -72.5t98 -171.5h-109q-33 62 -49 91t-36.5 63.5t-33 49t-22.5 17.5h-29v-221h-92zM514 901h33q50 0 82.5 21t32.5 65q0 54 -46 70q-22 10 -69 10h-33 v-166z" />
<glyph unicode="&#xaf;" d="M104 1167v166h560v-166h-560z" />
<glyph unicode="&#xb0;" horiz-adv-x="774" d="M70 1036q0 135 89.5 224.5t227.5 89.5t228 -89.5t90 -224.5t-91 -224t-229 -89q-137 0 -226 88.5t-89 224.5zM221 1034q0 -75 47.5 -124.5t118.5 -49.5q70 0 118 50t48 124q0 76 -48 126t-118 50q-71 0 -118.5 -50t-47.5 -126z" />
<glyph unicode="&#xb1;" horiz-adv-x="1107" d="M72 0v178h966v-178h-966zM72 580v178h383v295h198v-295h385v-178h-385v-295h-198v295h-383z" />
<glyph unicode="&#xb2;" horiz-adv-x="700" d="M51 825q2 77 24.5 142.5t56.5 110.5t74.5 83.5t80.5 68t73 55.5t53.5 55t20.5 59q0 39 -29 61.5t-79 22.5q-76 0 -203 -60l-47 133q145 74 284 74q124 0 191 -58.5t67 -156.5q0 -52 -23 -97.5t-58 -76t-78 -63t-81 -59.5t-69 -65t-41 -79h355v-150h-572z" />
<glyph unicode="&#xb3;" horiz-adv-x="700" d="M35 862l47 131q82 -39 180 -39q158 0 158 107q0 65 -68 88q-38 14 -112 14h-95v129h76q67 0 109 17q63 27 63 90q0 44 -30 66t-80 22q-84 0 -185 -43l-43 129q136 57 264 57q121 0 191 -56.5t70 -146.5q0 -131 -140 -186v-4q79 -13 122.5 -62t43.5 -126q0 -104 -86 -171 t-248 -67q-132 0 -237 51z" />
<glyph unicode="&#xb4;" d="M272 1087l119 302h236l-191 -302h-164z" />
<glyph unicode="&#xb6;" horiz-adv-x="1277" d="M117 889q0 199 130 330t345 131h506v-1678h-176v1534h-201v-1534h-176v756q-193 12 -310.5 139.5t-117.5 321.5z" />
<glyph unicode="&#xb7;" horiz-adv-x="473" d="M109 516q0 54 35.5 90.5t86.5 36.5q53 0 89 -36.5t36 -90.5t-36.5 -91.5t-88.5 -37.5q-51 0 -86.5 37.5t-35.5 91.5z" />
<glyph unicode="&#xb8;" d="M176 -412l31 107q52 -19 100 -19q46 0 74.5 18t28.5 52q0 43 -43 57.5t-127 14.5l57 182h160l-33 -104q170 -11 170 -150q0 -82 -70 -131t-200 -49q-84 0 -148 22z" />
<glyph unicode="&#xb9;" horiz-adv-x="698" d="M61 1495l332 133h135v-803h-168v625l-239 -92z" />
<glyph unicode="&#xba;" horiz-adv-x="790" d="M55 895q0 154 94.5 255t245.5 101t245.5 -101t94.5 -255t-94 -255t-246 -101q-151 0 -245.5 101t-94.5 255zM227 895q0 -95 45.5 -155t122.5 -60t123.5 60t46.5 155t-46.5 155t-123.5 60t-122.5 -60t-45.5 -155z" />
<glyph unicode="&#xbb;" horiz-adv-x="1202" d="M121 119l278 375l-278 376l172 95l344 -471l-344 -469zM602 119l279 375l-279 376l170 95l346 -471l-346 -469z" />
<glyph unicode="&#xbc;" horiz-adv-x="1875" d="M117 1227l332 133h135v-803h-168v625l-240 -92zM399 0l848 1350h178l-850 -1350h-176zM1028 174v107l393 522h160v-498h109v-131h-109v-174h-168v174h-385zM1210 303q16 0 64 1t76 1h63v64q0 135 6 213z" />
<glyph unicode="&#xbd;" horiz-adv-x="1875" d="M94 1227l332 133h135v-803h-168v625l-239 -92zM369 0l848 1350h178l-850 -1350h-176zM1147 0q2 77 24.5 142.5t56.5 110.5t74.5 83t80.5 67.5t73 56t53.5 55t20.5 58.5q0 39 -29.5 61.5t-79.5 22.5q-77 0 -202 -59l-48 133q145 74 285 74q124 0 191 -58.5t67 -156.5 q0 -52 -23 -97.5t-58 -76t-78 -63t-81 -59.5t-69 -65t-41 -79h354v-150h-571z" />
<glyph unicode="&#xbe;" horiz-adv-x="1875" d="M125 594l47 131q82 -39 180 -39q158 0 158 107q0 65 -68 88q-38 14 -112 14h-94v129h75q69 0 109 16q63 27 63 90q0 44 -30 66.5t-80 22.5q-84 0 -185 -43l-43 129q136 57 265 57q121 0 190.5 -56.5t69.5 -146.5q0 -131 -140 -186v-4q79 -13 122.5 -62.5t43.5 -126.5 q0 -104 -86 -170.5t-248 -66.5q-132 0 -237 51zM444 0l848 1350h178l-849 -1350h-177zM1063 174v107l393 522h160v-498h108v-131h-108v-174h-168v174h-385zM1245 303q15 0 63 1t76 1h64v64q0 135 6 213z" />
<glyph unicode="&#xbf;" horiz-adv-x="954" d="M96 -92q0 67 30 126t75.5 99t98.5 79.5t98.5 70t75.5 68.5t30 77q0 49 -35 92l178 74q68 -77 68 -176q0 -49 -21 -93.5t-55 -77.5t-74.5 -64t-81.5 -59.5t-75 -57t-55 -63.5t-21 -73q0 -65 40.5 -100t112.5 -35q136 0 265 117l98 -139q-181 -160 -395 -160 q-169 0 -263 83t-94 212zM424 866q0 54 36 90.5t87 36.5q53 0 89 -36.5t36 -90.5t-36.5 -91.5t-88.5 -37.5q-51 0 -87 37.5t-36 91.5z" />
<glyph unicode="&#xc0;" horiz-adv-x="1257" d="M23 0l518 1356h159l535 -1356h-229l-132 346h-501l-129 -346h-221zM379 1726h237l119 -301h-166zM436 522h371l-109 307q-28 79 -71 218h-4q-20 -67 -74 -218z" />
<glyph unicode="&#xc1;" horiz-adv-x="1257" d="M23 0l518 1356h159l535 -1356h-229l-132 346h-501l-129 -346h-221zM436 522h371l-109 307q-28 79 -71 218h-4q-20 -67 -74 -218zM510 1425l119 301h235l-190 -301h-164z" />
<glyph unicode="&#xc2;" horiz-adv-x="1257" d="M23 0l518 1356h159l535 -1356h-229l-132 346h-501l-129 -346h-221zM330 1425l202 301h181l205 -301h-173l-122 177l-121 -177h-172zM436 522h371l-109 307q-28 79 -71 218h-4q-20 -67 -74 -218z" />
<glyph unicode="&#xc3;" horiz-adv-x="1257" d="M23 0l518 1356h159l535 -1356h-229l-132 346h-501l-129 -346h-221zM313 1479v67q0 77 45 121.5t115 44.5q49 0 101.5 -23t95.5 -46t69 -23q30 0 39.5 19.5t9.5 60.5h142v-70q0 -76 -45 -120t-115 -44q-48 0 -100.5 23t-96 46.5t-69.5 23.5q-29 0 -38 -19.5t-9 -60.5h-144 zM436 522h371l-109 307q-28 79 -71 218h-4q-20 -67 -74 -218z" />
<glyph unicode="&#xc4;" horiz-adv-x="1257" d="M23 0l518 1356h159l535 -1356h-229l-132 346h-501l-129 -346h-221zM317 1552q0 47 34 81t81 34q46 0 79.5 -34t33.5 -81t-33.5 -80.5t-79.5 -33.5q-47 0 -81 33.5t-34 80.5zM436 522h371l-109 307q-28 79 -71 218h-4q-20 -67 -74 -218zM700 1552q0 47 33 81t80 34 q46 0 79.5 -34t33.5 -81t-33.5 -80.5t-79.5 -33.5q-47 0 -80 33.5t-33 80.5z" />
<glyph unicode="&#xc5;" horiz-adv-x="1257" d="M23 0l512 1337q-67 19 -106.5 68.5t-39.5 118.5q0 90 63.5 144t165.5 54t166 -54t64 -144q0 -68 -38 -117t-103 -68l528 -1339h-229l-132 346h-501l-129 -346h-221zM436 522h371l-109 309q-46 131 -71 222h-4q-18 -65 -74 -222zM530 1524q0 -46 24 -72.5t64 -26.5 q41 0 66 26.5t25 72.5q0 47 -24.5 73.5t-66.5 26.5q-40 0 -64 -26.5t-24 -73.5z" />
<glyph unicode="&#xc6;" horiz-adv-x="1685" d="M20 0l721 1350h822l-60 -176h-532l67 -396h461v-176h-430l74 -426h426v-176h-617l-59 346h-465l-184 -346h-224zM524 522h340l-55 344q-3 18 -12.5 80.5t-14.5 97.5h-4q-28 -71 -92 -196z" />
<glyph unicode="&#xc7;" horiz-adv-x="1259" d="M106 659q0 145 51 274t141 223.5t222 150t287 55.5q203 0 346 -68v-200q-162 86 -342 86q-148 0 -257.5 -69.5t-163.5 -184.5t-54 -258q0 -227 126 -366.5t339 -139.5q167 0 327 90l60 -170q-180 -98 -410 -102l-26 -84q172 -11 172 -150q0 -82 -70.5 -131t-202.5 -49 q-83 0 -147 22l33 107q49 -19 98 -19q46 0 74 18t28 52q0 44 -43.5 59t-124.5 13l54 176q-245 44 -381 222.5t-136 442.5z" />
<glyph unicode="&#xc8;" horiz-adv-x="1005" d="M168 0v1350h715l-60 -176h-440v-396h436v-176h-436v-426h506v-176h-721zM256 1726h238l118 -301h-166z" />
<glyph unicode="&#xc9;" horiz-adv-x="1005" d="M168 0v1350h715l-60 -176h-440v-396h436v-176h-436v-426h506v-176h-721zM403 1425l119 301h236l-191 -301h-164z" />
<glyph unicode="&#xca;" horiz-adv-x="1005" d="M168 0v1350h715l-60 -176h-440v-396h436v-176h-436v-426h506v-176h-721zM219 1425l203 301h180l205 -301h-172l-123 177l-121 -177h-172z" />
<glyph unicode="&#xcb;" horiz-adv-x="1005" d="M170 0v1350h715l-60 -176h-440v-396h436v-176h-436v-426h506v-176h-721zM215 1552q0 47 34 81t81 34q46 0 79 -34t33 -81t-33 -80.5t-79 -33.5q-47 0 -81 33.5t-34 80.5zM598 1552q0 47 33 81t80 34q46 0 79 -34t33 -81t-33 -80.5t-79 -33.5q-47 0 -80 33.5t-33 80.5z " />
<glyph unicode="&#xcc;" horiz-adv-x="550" d="M31 1726h237l119 -301h-166zM168 0v1350h215v-1350h-215z" />
<glyph unicode="&#xcd;" horiz-adv-x="550" d="M158 1425l118 301h236l-190 -301h-164zM168 0v1350h215v-1350h-215z" />
<glyph unicode="&#xce;" horiz-adv-x="550" d="M-20 1425l202 301h180l205 -301h-172l-123 177l-120 -177h-172zM168 0v1350h215v-1350h-215z" />
<glyph unicode="&#xcf;" horiz-adv-x="550" d="M-31 1552q0 47 34 81t81 34q46 0 79.5 -34t33.5 -81t-33.5 -80.5t-79.5 -33.5q-47 0 -81 33.5t-34 80.5zM168 0v1350h215v-1350h-215zM352 1552q0 47 33 81t80 34q46 0 79.5 -34t33.5 -81t-33.5 -80.5t-79.5 -33.5q-47 0 -80 33.5t-33 80.5z" />
<glyph unicode="&#xd0;" horiz-adv-x="1392" d="M16 596v176h152v578h387q176 0 315.5 -48.5t230 -137t138 -210.5t47.5 -270q0 -150 -50.5 -276t-144.5 -216.5t-235.5 -141t-316.5 -50.5h-371v596h-152zM383 176h158q137 0 239.5 40.5t161.5 112t87 160t28 193.5q0 226 -132.5 359t-387.5 133h-154v-402h317v-176h-317 v-420z" />
<glyph unicode="&#xd1;" horiz-adv-x="1519" d="M168 0v1350h211l592 -766q99 -128 166 -230h4q-4 144 -4 232v764h215v-1350h-191l-614 797q-30 38 -60 78t-60.5 82.5t-45.5 62.5h-4q6 -88 6 -217v-803h-215zM451 1479v67q0 77 44.5 121.5t114.5 44.5q49 0 102 -23t96 -46t69 -23q30 0 39.5 19.5t9.5 60.5h141v-70 q0 -76 -45 -120t-115 -44q-48 0 -100.5 23t-96 46.5t-69.5 23.5q-29 0 -38 -19.5t-9 -60.5h-143z" />
<glyph unicode="&#xd2;" horiz-adv-x="1560" d="M106 670q0 202 86 360t239.5 245t348.5 87t348.5 -88t238.5 -245.5t85 -358.5q0 -154 -51 -283.5t-140.5 -218.5t-213.5 -138.5t-267 -49.5q-194 0 -347 85t-240 242.5t-87 362.5zM336 670q0 -234 121.5 -371t322.5 -137t323 137t122 371q0 231 -120 370.5t-325 139.5 q-201 0 -322.5 -137.5t-121.5 -372.5zM526 1726h238l119 -301h-166z" />
<glyph unicode="&#xd3;" horiz-adv-x="1560" d="M106 670q0 202 86 360t239.5 245t348.5 87t348.5 -88t238.5 -245.5t85 -358.5q0 -154 -51 -283.5t-140.5 -218.5t-213.5 -138.5t-267 -49.5q-194 0 -347 85t-240 242.5t-87 362.5zM336 670q0 -234 121.5 -371t322.5 -137t323 137t122 371q0 231 -120 370.5t-325 139.5 q-201 0 -322.5 -137.5t-121.5 -372.5zM690 1425l119 301h235l-190 -301h-164z" />
<glyph unicode="&#xd4;" horiz-adv-x="1560" d="M106 670q0 202 86 360t239.5 245t348.5 87t348.5 -88t238.5 -245.5t85 -358.5q0 -154 -51 -283.5t-140.5 -218.5t-213.5 -138.5t-267 -49.5q-194 0 -347 85t-240 242.5t-87 362.5zM336 670q0 -234 121.5 -371t322.5 -137t323 137t122 371q0 231 -120 370.5t-325 139.5 q-201 0 -322.5 -137.5t-121.5 -372.5zM487 1425l203 301h180l205 -301h-172l-123 177l-121 -177h-172z" />
<glyph unicode="&#xd5;" horiz-adv-x="1560" d="M106 670q0 202 86 360t239.5 245t348.5 87t348.5 -88t238.5 -245.5t85 -358.5q0 -154 -51 -283.5t-140.5 -218.5t-213.5 -138.5t-267 -49.5q-194 0 -347 85t-240 242.5t-87 362.5zM336 670q0 -234 121.5 -371t322.5 -137t323 137t122 371q0 231 -120 370.5t-325 139.5 q-201 0 -322.5 -137.5t-121.5 -372.5zM475 1479v67q0 77 45 121.5t115 44.5q49 0 101.5 -23t95.5 -46t69 -23q30 0 39.5 19.5t9.5 60.5h142v-70q0 -76 -45 -120t-115 -44q-48 0 -100.5 23t-96 46.5t-69.5 23.5q-29 0 -38.5 -19.5t-9.5 -60.5h-143z" />
<glyph unicode="&#xd6;" horiz-adv-x="1560" d="M106 670q0 202 86 360t239.5 245t348.5 87t348.5 -88t238.5 -245.5t85 -358.5q0 -154 -51 -283.5t-140.5 -218.5t-213.5 -138.5t-267 -49.5q-194 0 -347 85t-240 242.5t-87 362.5zM336 670q0 -234 121.5 -371t322.5 -137t323 137t122 371q0 231 -120 370.5t-325 139.5 q-201 0 -322.5 -137.5t-121.5 -372.5zM481 1552q0 47 34 81t81 34q46 0 79.5 -34t33.5 -81t-33.5 -80.5t-79.5 -33.5q-47 0 -81 33.5t-34 80.5zM864 1552q0 47 33 81t80 34q46 0 79.5 -34t33.5 -81t-33.5 -80.5t-79.5 -33.5q-47 0 -80 33.5t-33 80.5z" />
<glyph unicode="&#xd7;" horiz-adv-x="1179" d="M86 885l129 129l375 -373l373 373l129 -129l-373 -373l373 -373l-129 -129l-373 373l-373 -375l-129 129l373 375z" />
<glyph unicode="&#xd8;" horiz-adv-x="1570" d="M113 670q0 306 188.5 499t484.5 193q208 0 367 -111l127 154l135 -105l-129 -153q172 -193 172 -477q0 -154 -51 -283.5t-140.5 -218.5t-213.5 -138.5t-267 -49.5q-218 0 -380 112l-123 -147l-136 102l127 152q-161 188 -161 471zM338 670q0 -180 74 -301l622 733 q-104 80 -248 80q-201 0 -324.5 -139t-123.5 -373zM526 244q107 -84 260 -84q200 0 323.5 138t123.5 372q0 184 -80 311z" />
<glyph unicode="&#xd9;" horiz-adv-x="1394" d="M158 496v854h215v-838q0 -112 33 -182q72 -168 292 -168q219 0 291 168q35 69 35 186v834h215v-854q0 -144 -47 -250q-58 -131 -184 -198.5t-310 -67.5q-381 0 -495 270q-45 99 -45 246zM446 1726h238l119 -301h-166z" />
<glyph unicode="&#xda;" horiz-adv-x="1394" d="M158 496v854h215v-838q0 -112 33 -182q72 -168 292 -168q219 0 291 168q35 69 35 186v834h215v-854q0 -144 -47 -250q-58 -131 -184 -198.5t-310 -67.5q-381 0 -495 270q-45 99 -45 246zM602 1425l119 301h235l-190 -301h-164z" />
<glyph unicode="&#xdb;" horiz-adv-x="1394" d="M158 496v854h215v-838q0 -112 33 -182q72 -168 292 -168q219 0 291 168q35 69 35 186v834h215v-854q0 -144 -47 -250q-58 -131 -184 -198.5t-310 -67.5q-381 0 -495 270q-45 99 -45 246zM410 1425l202 301h181l204 -301h-172l-123 177l-120 -177h-172z" />
<glyph unicode="&#xdc;" horiz-adv-x="1394" d="M158 496v854h215v-838q0 -112 33 -182q72 -168 292 -168q219 0 291 168q35 69 35 186v834h215v-854q0 -144 -47 -250q-58 -131 -184 -198.5t-310 -67.5q-381 0 -495 270q-45 99 -45 246zM401 1552q0 47 34 81t81 34q46 0 79.5 -34t33.5 -81t-33.5 -80.5t-79.5 -33.5 q-47 0 -81 33.5t-34 80.5zM784 1552q0 47 33 81t80 34q46 0 79.5 -34t33.5 -81t-33.5 -80.5t-79.5 -33.5q-47 0 -80 33.5t-33 80.5z" />
<glyph unicode="&#xdd;" horiz-adv-x="1165" d="M20 1350h236l330 -619h4l321 619h234l-453 -818v-532h-217v537zM475 1425l119 301h235l-190 -301h-164z" />
<glyph unicode="&#xde;" horiz-adv-x="1087" d="M168 0v1350h215v-224h86q183 0 301 -59q101 -53 156 -149.5t55 -229.5q0 -82 -23.5 -153t-80.5 -134t-144 -100q-114 -49 -282 -49h-68v-252h-215zM383 428h82q102 0 170 33q121 61 121 227q0 156 -113 223q-67 39 -180 39h-80v-522z" />
<glyph unicode="&#xdf;" horiz-adv-x="1226" d="M121 -289v1272q0 110 29 195t73 135t105 82t117 43.5t116 11.5q89 0 165.5 -26t139 -78.5t99 -143.5t36.5 -211v-51q-98 -21 -147 -56t-49 -93q0 -37 22.5 -68.5t59 -58.5t76 -53.5t82 -65.5t67.5 -82q45 -78 45 -170q0 -81 -31.5 -143t-86 -98t-120.5 -54t-141 -18 q-179 0 -311 83l68 158q118 -71 233 -71q78 0 128 32.5t50 102.5q0 43 -22.5 79t-59 64t-76 54t-81 61.5t-66.5 72.5q-47 66 -47 146q0 186 199 262q-2 114 -60.5 183t-169.5 69q-104 0 -166.5 -64.5t-62.5 -205.5v-1295h-213z" />
<glyph unicode="&#xe0;" horiz-adv-x="987" d="M72 287q0 181 161 262q86 44 248 51l174 6v41q0 92 -52 136t-142 44q-134 0 -258 -71l-74 141q167 96 365 96q374 0 374 -346v-373q0 -205 19 -274h-182l-35 98q-125 -118 -283 -118q-138 0 -226.5 84.5t-88.5 222.5zM250 1389h237l119 -302h-166zM287 299 q0 -69 42.5 -109t114.5 -40q108 0 211 92v219l-145 -6q-100 -3 -156 -33q-67 -37 -67 -123z" />
<glyph unicode="&#xe1;" horiz-adv-x="987" d="M72 287q0 181 161 262q86 44 248 51l174 6v41q0 92 -52 136t-142 44q-134 0 -258 -71l-74 141q167 96 365 96q374 0 374 -346v-373q0 -205 19 -274h-182l-35 98q-125 -118 -283 -118q-138 0 -226.5 84.5t-88.5 222.5zM287 299q0 -69 42.5 -109t114.5 -40q108 0 211 92 v219l-145 -6q-100 -3 -156 -33q-67 -37 -67 -123zM381 1087l119 302h235l-190 -302h-164z" />
<glyph unicode="&#xe2;" horiz-adv-x="987" d="M72 287q0 181 161 262q86 44 248 51l174 6v41q0 92 -52 136t-142 44q-134 0 -258 -71l-74 141q167 96 365 96q374 0 374 -346v-373q0 -205 19 -274h-182l-35 98q-125 -118 -283 -118q-138 0 -226.5 84.5t-88.5 222.5zM199 1087l202 302h181l204 -302h-172l-122 177 l-121 -177h-172zM287 299q0 -69 42.5 -109t114.5 -40q108 0 211 92v219l-145 -6q-100 -3 -156 -33q-67 -37 -67 -123z" />
<glyph unicode="&#xe3;" horiz-adv-x="991" d="M72 287q0 181 161 262q86 44 248 51l174 6v41q0 92 -52 136t-142 44q-134 0 -258 -71l-74 141q167 96 365 96q374 0 374 -346v-373q0 -205 19 -274h-182l-35 98q-125 -118 -283 -118q-138 0 -226.5 84.5t-88.5 222.5zM184 1124v70q0 77 45 121.5t115 44.5 q49 0 101.5 -23.5t95.5 -47t69 -23.5q30 0 39.5 19.5t9.5 62.5h142v-70q0 -77 -45 -121.5t-115 -44.5q-48 0 -100.5 23t-96 46t-69.5 23q-29 0 -38 -19t-9 -61h-144zM287 299q0 -69 42.5 -109t114.5 -40q108 0 211 92v219l-145 -6q-100 -3 -156 -33q-67 -37 -67 -123z" />
<glyph unicode="&#xe4;" horiz-adv-x="987" d="M72 287q0 181 161 262q86 44 248 51l174 6v41q0 92 -52 136t-142 44q-134 0 -258 -71l-74 141q167 96 365 96q374 0 374 -346v-373q0 -205 19 -274h-182l-35 98q-125 -118 -283 -118q-138 0 -226.5 84.5t-88.5 222.5zM188 1239q0 47 34 81t81 34q46 0 79.5 -34t33.5 -81 t-33.5 -81t-79.5 -34q-47 0 -81 34t-34 81zM287 299q0 -69 42.5 -109t114.5 -40q108 0 211 92v219l-145 -6q-100 -3 -156 -33q-67 -37 -67 -123zM571 1239q0 47 33 81t80 34q46 0 79.5 -34t33.5 -81t-33.5 -81t-79.5 -34q-47 0 -80 34t-33 81z" />
<glyph unicode="&#xe5;" horiz-adv-x="987" d="M72 287q0 181 161 262q86 44 248 51l174 6v41q0 92 -52 136t-142 44q-134 0 -258 -71l-74 141q167 96 365 96q374 0 374 -346v-373q0 -205 19 -274h-182l-35 98q-125 -118 -283 -118q-138 0 -226.5 84.5t-88.5 222.5zM264 1270q0 90 63.5 143t166.5 53q102 0 165.5 -53 t63.5 -143q0 -91 -63.5 -145t-165.5 -54q-103 0 -166.5 54t-63.5 145zM287 299q0 -69 42.5 -109t114.5 -40q108 0 211 92v219l-145 -6q-100 -3 -156 -33q-67 -37 -67 -123zM403 1270q0 -47 25.5 -74t65.5 -27t65 27t25 74q0 45 -25 71.5t-65 26.5t-65.5 -26.5t-25.5 -71.5z " />
<glyph unicode="&#xe6;" horiz-adv-x="1572" d="M72 287q0 80 31.5 139.5t88 94.5t128.5 52t159 17h187v57q0 91 -55.5 135.5t-145.5 44.5q-135 0 -262 -73l-74 143q167 96 360 96q221 0 299 -153h5q106 153 301 153q188 0 295.5 -135t107.5 -375v-45h-620q3 -131 79.5 -209.5t206.5 -78.5q127 0 244 65l63 -145 q-142 -90 -329 -90q-248 0 -375 170q-66 -77 -159 -123.5t-206 -46.5q-147 0 -238 83t-91 224zM287 295q0 -67 43 -106t114 -39q74 0 142 38.5t110 90.5q-23 67 -26 159h-176q-98 0 -152.5 -35t-54.5 -108zM877 590h403q-5 100 -55.5 168.5t-143.5 68.5q-92 0 -146.5 -68 t-57.5 -169z" />
<glyph unicode="&#xe7;" horiz-adv-x="901" d="M74 477q0 222 142 369t359 147q151 0 256 -63v-182q-107 71 -235 71q-139 0 -221 -94t-82 -242q0 -156 78.5 -242.5t212.5 -86.5q110 0 229 65l61 -147q-56 -38 -139 -64t-157 -26h-5l-26 -86q170 -11 170 -150q0 -82 -70.5 -131t-200.5 -49q-83 0 -147 22l31 107 q52 -19 100 -19q46 0 74 18t28 52q0 24 -13 39.5t-40 22t-52 8.5t-65 2l56 178q-164 39 -254 169.5t-90 311.5z" />
<glyph unicode="&#xe8;" horiz-adv-x="989" d="M74 487q0 223 115 364.5t309 141.5q196 0 305.5 -136.5t109.5 -373.5v-51h-622q3 -126 81 -204t208 -78q126 0 243 65l64 -145q-139 -90 -330 -90q-123 0 -217.5 41t-151.5 112.5t-85.5 161t-28.5 192.5zM262 1389h238l118 -302h-165zM289 584h407q-3 102 -53.5 172.5 t-146.5 70.5q-93 0 -149 -70.5t-58 -172.5z" />
<glyph unicode="&#xe9;" horiz-adv-x="989" d="M74 487q0 223 115 364.5t309 141.5q196 0 305.5 -136.5t109.5 -373.5v-51h-622q3 -126 81 -204t208 -78q126 0 243 65l64 -145q-139 -90 -330 -90q-123 0 -217.5 41t-151.5 112.5t-85.5 161t-28.5 192.5zM289 584h407q-3 102 -53.5 172.5t-146.5 70.5q-93 0 -149 -70.5 t-58 -172.5zM393 1087l119 302h236l-191 -302h-164z" />
<glyph unicode="&#xea;" horiz-adv-x="989" d="M74 487q0 223 115 364.5t309 141.5q196 0 305.5 -136.5t109.5 -373.5v-51h-622q3 -126 81 -204t208 -78q126 0 243 65l64 -145q-139 -90 -330 -90q-123 0 -217.5 41t-151.5 112.5t-85.5 161t-28.5 192.5zM211 1087l203 302h180l205 -302h-172l-123 177l-121 -177h-172z M289 584h407q-3 102 -53.5 172.5t-146.5 70.5q-93 0 -149 -70.5t-58 -172.5z" />
<glyph unicode="&#xeb;" horiz-adv-x="989" d="M74 487q0 223 115 364.5t309 141.5q196 0 305.5 -136.5t109.5 -373.5v-51h-622q3 -126 81 -204t208 -78q126 0 243 65l64 -145q-139 -90 -330 -90q-123 0 -217.5 41t-151.5 112.5t-85.5 161t-28.5 192.5zM201 1239q0 47 33.5 81t80.5 34q46 0 79.5 -34t33.5 -81 t-33.5 -81t-79.5 -34q-47 0 -80.5 34t-33.5 81zM289 584h407q-3 102 -53.5 172.5t-146.5 70.5q-93 0 -149 -70.5t-58 -172.5zM584 1239q0 48 32.5 81.5t79.5 33.5q46 0 79.5 -34t33.5 -81t-33.5 -81t-79.5 -34q-47 0 -79.5 33.5t-32.5 81.5z" />
<glyph unicode="&#xec;" horiz-adv-x="479" d="M-2 1389h238l118 -302h-166zM133 0v969h213v-969h-213z" />
<glyph unicode="&#xed;" horiz-adv-x="479" d="M129 1087l119 302h235l-190 -302h-164zM133 0v969h213v-969h-213z" />
<glyph unicode="&#xee;" horiz-adv-x="479" d="M-53 1087l203 302h180l205 -302h-173l-122 177l-121 -177h-172zM133 0v969h213v-969h-213z" />
<glyph unicode="&#xef;" horiz-adv-x="479" d="M-63 1239q0 47 33.5 81t80.5 34q46 0 79.5 -34t33.5 -81t-33.5 -81t-79.5 -34q-47 0 -80.5 34t-33.5 81zM133 0v969h213v-969h-213zM319 1239q0 47 33 81t80 34q46 0 79.5 -34t33.5 -81t-33.5 -81t-79.5 -34q-47 0 -80 34t-33 81z" />
<glyph unicode="&#xf0;" horiz-adv-x="1120" d="M74 475q0 224 118 365t320 141q100 0 184.5 -44t134.5 -114h5q-23 107 -83.5 200.5t-158.5 154.5l-277 -129l-49 104l185 80q-90 40 -250 43l39 174q253 -12 417 -115l242 115l49 -102l-188 -86q256 -217 256 -664q0 -163 -37 -285t-103.5 -193t-150.5 -105.5t-186 -34.5 q-206 0 -336.5 139.5t-130.5 355.5zM293 477q0 -148 68.5 -236.5t185.5 -88.5q121 0 186.5 89t65.5 242q0 148 -68.5 237t-185.5 89q-120 0 -186 -91t-66 -241z" />
<glyph unicode="&#xf1;" horiz-adv-x="1079" d="M121 0v969h180l25 -115q165 139 331 139q61 0 113 -17.5t96 -56t69.5 -108.5t25.5 -166v-645h-213v578q0 51 -7 90t-23.5 71.5t-48.5 50t-79 17.5q-118 0 -256 -117v-690h-213zM211 1124v70q0 77 45 121.5t115 44.5q49 0 101.5 -23.5t95.5 -47t69 -23.5q30 0 39.5 19.5 t9.5 62.5h141v-70q0 -77 -44.5 -121.5t-114.5 -44.5q-48 0 -101 23t-96.5 46t-69.5 23q-29 0 -38 -19t-9 -61h-143z" />
<glyph unicode="&#xf2;" horiz-adv-x="1093" d="M74 487q0 220 131 363t342 143q210 0 340.5 -143.5t130.5 -362.5q0 -144 -58 -259t-166 -181.5t-247 -66.5q-210 0 -341.5 144t-131.5 363zM293 487q0 -149 67.5 -241t186.5 -92t185.5 91.5t66.5 241.5q0 149 -66.5 240.5t-185.5 91.5t-186.5 -92t-67.5 -240zM297 1389 h238l118 -302h-166z" />
<glyph unicode="&#xf3;" horiz-adv-x="1093" d="M74 487q0 220 131 363t342 143q210 0 340.5 -143.5t130.5 -362.5q0 -144 -58 -259t-166 -181.5t-247 -66.5q-210 0 -341.5 144t-131.5 363zM293 487q0 -149 67.5 -241t186.5 -92t185.5 91.5t66.5 241.5q0 149 -66.5 240.5t-185.5 91.5t-186.5 -92t-67.5 -240zM446 1087 l119 302h236l-191 -302h-164z" />
<glyph unicode="&#xf4;" horiz-adv-x="1093" d="M74 487q0 220 131 363t342 143q210 0 340.5 -143.5t130.5 -362.5q0 -144 -58 -259t-166 -181.5t-247 -66.5q-210 0 -341.5 144t-131.5 363zM252 1087l203 302h180l205 -302h-172l-123 177l-121 -177h-172zM293 487q0 -149 67.5 -241t186.5 -92t185.5 91.5t66.5 241.5 q0 149 -66.5 240.5t-185.5 91.5t-186.5 -92t-67.5 -240z" />
<glyph unicode="&#xf5;" horiz-adv-x="1093" d="M74 487q0 220 131 363t342 143q210 0 340.5 -143.5t130.5 -362.5q0 -144 -58 -259t-166 -181.5t-247 -66.5q-210 0 -341.5 144t-131.5 363zM238 1124v70q0 77 44.5 121.5t114.5 44.5q49 0 102 -23.5t96 -47t69 -23.5q30 0 39.5 19.5t9.5 62.5h141v-70q0 -77 -45 -121.5 t-115 -44.5q-48 0 -100.5 23t-96 46t-69.5 23q-29 0 -38 -19t-9 -61h-143zM293 487q0 -149 67.5 -241t186.5 -92t185.5 91.5t66.5 241.5q0 149 -66.5 240.5t-185.5 91.5t-186.5 -92t-67.5 -240z" />
<glyph unicode="&#xf6;" horiz-adv-x="1093" d="M74 487q0 220 131 363t342 143q210 0 340.5 -143.5t130.5 -362.5q0 -144 -58 -259t-166 -181.5t-247 -66.5q-210 0 -341.5 144t-131.5 363zM242 1239q0 47 33.5 81t80.5 34q46 0 79.5 -34t33.5 -81t-33.5 -81t-79.5 -34q-47 0 -80.5 34t-33.5 81zM293 487 q0 -149 67.5 -241t186.5 -92t185.5 91.5t66.5 241.5q0 149 -66.5 240.5t-185.5 91.5t-186.5 -92t-67.5 -240zM625 1239q0 48 32.5 81.5t79.5 33.5q46 0 79.5 -34t33.5 -81t-33.5 -81t-79.5 -34q-47 0 -79.5 33.5t-32.5 81.5z" />
<glyph unicode="&#xf7;" horiz-adv-x="1107" d="M72 426v178h966v-178h-966zM444 162q0 51 33.5 85t81.5 34t80.5 -34t32.5 -85q0 -49 -33 -83t-80 -34q-48 0 -81.5 34t-33.5 83zM444 864q0 49 34 84t81 35t80 -34.5t33 -84.5q0 -49 -33 -82.5t-80 -33.5q-48 0 -81.5 33.5t-33.5 82.5z" />
<glyph unicode="&#xf8;" horiz-adv-x="1093" d="M74 487q0 220 131 363t342 143q140 0 258 -80l80 101l96 -74l-84 -104q121 -143 121 -349q0 -144 -58 -259t-166 -181.5t-247 -66.5q-148 0 -260 79l-84 -110l-97 76l91 110q-123 142 -123 352zM289 487q0 -109 37 -184l366 467q-59 53 -145 53q-119 0 -188.5 -94 t-69.5 -242zM399 203q59 -53 148 -53q119 0 187.5 93.5t68.5 243.5q0 112 -35 183z" />
<glyph unicode="&#xf9;" horiz-adv-x="1075" d="M121 360v609h213v-580q0 -86 18 -131q37 -94 150 -94q66 0 125.5 29t97.5 73v703h213v-701q0 -202 18 -268h-184l-35 104q-138 -124 -307 -124q-53 0 -102.5 14.5t-100.5 58.5t-77 113q-29 77 -29 194zM285 1389h237l119 -302h-166z" />
<glyph unicode="&#xfa;" horiz-adv-x="1075" d="M121 360v609h213v-580q0 -86 18 -131q37 -94 150 -94q66 0 125.5 29t97.5 73v703h213v-701q0 -202 18 -268h-184l-35 104q-138 -124 -307 -124q-53 0 -102.5 14.5t-100.5 58.5t-77 113q-29 77 -29 194zM428 1087l119 302h235l-190 -302h-164z" />
<glyph unicode="&#xfb;" horiz-adv-x="1075" d="M121 360v609h213v-580q0 -86 18 -131q37 -94 150 -94q66 0 125.5 29t97.5 73v703h213v-701q0 -202 18 -268h-184l-35 104q-138 -124 -307 -124q-53 0 -102.5 14.5t-100.5 58.5t-77 113q-29 77 -29 194zM242 1087l202 302h181l204 -302h-172l-122 177l-121 -177h-172z" />
<glyph unicode="&#xfc;" horiz-adv-x="1075" d="M121 360v609h213v-580q0 -86 18 -131q37 -94 150 -94q66 0 125.5 29t97.5 73v703h213v-701q0 -202 18 -268h-184l-35 104q-138 -124 -307 -124q-53 0 -102.5 14.5t-100.5 58.5t-77 113q-29 77 -29 194zM231 1239q0 47 34 81t81 34q46 0 79.5 -34t33.5 -81t-33.5 -81 t-79.5 -34q-47 0 -81 34t-34 81zM614 1239q0 47 33 81t80 34q46 0 79.5 -34t33.5 -81t-33.5 -81t-79.5 -34q-47 0 -80 34t-33 81z" />
<glyph unicode="&#xfd;" horiz-adv-x="1026" d="M-27 -444l54 168q75 -35 141 -35q90 0 159 72t124 241l-435 967h226l305 -721h4l244 721h217l-369 -1014q-41 -113 -87 -194.5t-89 -128.5t-94.5 -74t-95.5 -35t-101 -8q-113 0 -203 41zM416 1087l119 302h235l-190 -302h-164z" />
<glyph unicode="&#xfe;" horiz-adv-x="1073" d="M131 -485v1935h213v-475q67 18 160 18q234 0 364.5 -133.5t130.5 -361.5q0 -229 -138 -373.5t-363 -144.5q-78 0 -154 26v-491h-213zM344 188q59 -30 141 -30q143 0 218 89.5t75 244.5q0 160 -82 241.5t-221 81.5q-73 0 -131 -18v-609z" />
<glyph unicode="&#xff;" horiz-adv-x="1026" d="M-27 -444l54 168q75 -35 141 -35q90 0 159 72t124 241l-435 967h226l305 -721h4l244 721h217l-369 -1014q-41 -113 -87 -194.5t-89 -128.5t-94.5 -74t-95.5 -35t-101 -8q-113 0 -203 41zM223 1239q0 47 34 81t81 34q46 0 79.5 -34t33.5 -81t-33.5 -81t-79.5 -34 q-47 0 -81 34t-34 81zM606 1239q0 47 33 81t80 34q46 0 79 -34t33 -81t-33 -81t-79 -34q-47 0 -80 34t-33 81z" />
<glyph unicode="&#x152;" horiz-adv-x="1843" d="M113 664q0 187 72.5 337.5t205.5 241.5q171 119 414 119q49 0 190 -6t248 -6h475l-57 -176h-442v-396h438v-176h-438v-426h505v-176h-483q-107 0 -255 -10t-195 -10q-245 0 -412 120q-126 85 -196 229t-70 335zM342 670q0 -300 193 -430q110 -78 270 -78q117 0 199 18 v977q-33 9 -96.5 16t-108.5 7q-171 0 -281 -93q-86 -66 -131 -173t-45 -244z" />
<glyph unicode="&#x153;" horiz-adv-x="1714" d="M74 487q0 219 129.5 362.5t333.5 143.5q123 0 215 -52t143 -142h4q49 90 132.5 142t193.5 52q188 0 300.5 -138t112.5 -372v-51h-622q3 -126 81.5 -204t207.5 -78q126 0 243 65l64 -145q-142 -90 -330 -90q-259 0 -379 198h-4q-118 -198 -356 -198q-207 0 -338 144 t-131 363zM293 487q0 -150 67.5 -242.5t186.5 -92.5t184.5 92.5t65.5 242.5q0 149 -66 241.5t-184 92.5q-119 0 -186.5 -93t-67.5 -241zM1014 584h405q-2 102 -52 172.5t-146 70.5q-95 0 -150 -70t-57 -173z" />
<glyph unicode="&#x178;" horiz-adv-x="1165" d="M20 1350h236l330 -619h4l321 619h234l-453 -818v-532h-217v537zM283 1552q0 47 33.5 81t80.5 34q46 0 79.5 -34t33.5 -81t-33.5 -80.5t-79.5 -33.5q-47 0 -80.5 33.5t-33.5 80.5zM666 1552q0 48 32.5 81.5t79.5 33.5q46 0 79.5 -34t33.5 -81t-33.5 -80.5t-79.5 -33.5 q-47 0 -79.5 33.5t-32.5 80.5z" />
<glyph unicode="&#x2c6;" d="M90 1087l203 302h180l205 -302h-172l-123 177l-121 -177h-172z" />
<glyph unicode="&#x2dc;" d="M76 1124v70q0 77 45 121.5t115 44.5q49 0 101.5 -23.5t95.5 -47t69 -23.5q30 0 39.5 19.5t9.5 62.5h141v-70q0 -77 -45 -121.5t-115 -44.5q-48 0 -100.5 23t-96 46t-69.5 23q-29 0 -38 -19t-9 -61h-143z" />
<glyph unicode="&#x2000;" horiz-adv-x="863" />
<glyph unicode="&#x2001;" horiz-adv-x="1726" />
<glyph unicode="&#x2002;" horiz-adv-x="863" />
<glyph unicode="&#x2003;" horiz-adv-x="1726" />
<glyph unicode="&#x2004;" horiz-adv-x="575" />
<glyph unicode="&#x2005;" horiz-adv-x="431" />
<glyph unicode="&#x2006;" horiz-adv-x="287" />
<glyph unicode="&#x2007;" horiz-adv-x="287" />
<glyph unicode="&#x2008;" horiz-adv-x="215" />
<glyph unicode="&#x2009;" horiz-adv-x="345" />
<glyph unicode="&#x200a;" horiz-adv-x="95" />
<glyph unicode="&#x2010;" horiz-adv-x="741" d="M106 418v180h531v-180h-531z" />
<glyph unicode="&#x2011;" horiz-adv-x="741" d="M106 418v180h531v-180h-531z" />
<glyph unicode="&#x2012;" horiz-adv-x="741" d="M106 418v180h531v-180h-531z" />
<glyph unicode="&#x2013;" horiz-adv-x="921" d="M0 436v160h922v-160h-922z" />
<glyph unicode="&#x2014;" horiz-adv-x="1638" d="M0 436v160h1638v-160h-1638z" />
<glyph unicode="&#x2018;" horiz-adv-x="466" d="M115 1180q0 144 73 293l131 -25q-22 -84 -22 -172q0 -128 74 -283l-183 -90q-73 134 -73 277z" />
<glyph unicode="&#x2019;" horiz-adv-x="466" d="M76 981q92 158 92 315q0 66 -12 136l200 36q15 -65 15 -131q0 -222 -176 -415z" />
<glyph unicode="&#x201a;" horiz-adv-x="466" d="M55 -248q92 158 92 316q0 64 -12 135l201 37q14 -60 14 -131q0 -223 -176 -416z" />
<glyph unicode="&#x201c;" horiz-adv-x="833" d="M115 1180q0 144 73 293l131 -25q-22 -84 -22 -172q0 -128 74 -283l-183 -90q-73 134 -73 277zM481 1180q0 142 74 293l131 -25q-22 -84 -22 -172q0 -131 73 -283l-182 -90q-74 135 -74 277z" />
<glyph unicode="&#x201d;" horiz-adv-x="833" d="M76 981q92 158 92 315q0 66 -12 136l200 36q15 -65 15 -131q0 -222 -176 -415zM442 981q93 160 93 315q0 60 -13 136l201 36q14 -60 14 -131q0 -222 -176 -415z" />
<glyph unicode="&#x201e;" horiz-adv-x="833" d="M55 -248q92 158 92 316q0 64 -12 135l201 37q14 -60 14 -131q0 -223 -176 -416zM422 -248q92 158 92 316q0 64 -12 135l200 37q15 -64 15 -131q0 -223 -176 -416z" />
<glyph unicode="&#x2022;" horiz-adv-x="649" d="M90 649q0 103 67.5 173.5t166.5 70.5q101 0 168 -70.5t67 -173.5q0 -99 -67.5 -169t-167.5 -70q-99 0 -166.5 70t-67.5 169z" />
<glyph unicode="&#x2026;" horiz-adv-x="1841" d="M225 111q0 54 35.5 90.5t87.5 36.5q51 0 87 -36.5t36 -90.5t-36 -91.5t-87 -37.5q-52 0 -87.5 37.5t-35.5 91.5zM797 111q0 54 36 90.5t89 36.5q51 0 86.5 -36.5t35.5 -90.5t-35.5 -91.5t-86.5 -37.5q-52 0 -88.5 37.5t-36.5 91.5zM1370 111q0 54 36 90.5t87 36.5 q53 0 89 -36.5t36 -90.5t-36.5 -91.5t-88.5 -37.5q-51 0 -87 37.5t-36 91.5z" />
<glyph unicode="&#x202f;" horiz-adv-x="345" />
<glyph unicode="&#x2039;" horiz-adv-x="722" d="M84 494l344 471l170 -95l-276 -376l276 -375l-170 -94z" />
<glyph unicode="&#x203a;" horiz-adv-x="722" d="M121 119l278 375l-278 376l170 95l346 -471l-346 -469z" />
<glyph unicode="&#x205f;" horiz-adv-x="431" />
<glyph unicode="&#x20ac;" horiz-adv-x="1101" d="M45 432v141h123q-4 54 -4 89q0 54 6 106h-125v141h150q56 204 197 328.5t343 124.5q163 0 277 -64v-204q-126 77 -254 77q-118 0 -202 -68.5t-124 -193.5h516l-49 -141h-500q-6 -39 -6 -100q0 -58 4 -95h488l-49 -141h-408q37 -123 116 -194.5t199 -71.5q124 0 240 74 l82 -170q-140 -90 -338 -90q-223 0 -359 121t-182 331h-141z" />
<glyph unicode="&#x2122;" horiz-adv-x="1751" d="M41 1208v142h649l-35 -142h-217v-667h-172v667h-225zM754 541v809h149l184 -267q42 -59 89 -143h6q38 74 84 139l180 271h160v-809h-172v391q0 112 6 155h-4q-35 -64 -72 -118l-145 -211h-80l-144 211q-33 48 -71 118h-4q6 -65 6 -155v-391h-172z" />
<glyph unicode="&#x25fc;" horiz-adv-x="972" d="M0 0v973h973v-973h-973z" />
</font>
</defs>
</svg>
